<svg width="76" height="76" viewBox="0 0 76 76" fill="none" xmlns="http://www.w3.org/2000/svg">
<path d="M38 76C58.9868 76 76 58.9868 76 38C76 17.0132 58.9868 0 38 0C17.0132 0 0 17.0132 0 38C0 58.9868 17.0132 76 38 76Z" fill="#FFD54F"/>
<path d="M30.0837 32.4583C28.7727 32.4583 27.7087 31.3943 27.7087 30.0833C27.7087 27.9015 25.9322 26.125 23.7503 26.125C21.5685 26.125 19.792 27.9015 19.792 30.0833C19.792 31.3943 18.728 32.4583 17.417 32.4583C16.106 32.4583 15.042 31.3943 15.042 30.0833C15.042 25.2795 18.9465 21.375 23.7503 21.375C28.5542 21.375 32.4587 25.2795 32.4587 30.0833C32.4587 31.3943 31.3947 32.4583 30.0837 32.4583Z" fill="#6D4C41"/>
<path d="M58.5836 32.4583C57.2726 32.4583 56.2086 31.3943 56.2086 30.0833C56.2086 27.9015 54.4321 26.125 52.2503 26.125C50.0685 26.125 48.292 27.9015 48.292 30.0833C48.292 31.3943 47.228 32.4583 45.917 32.4583C44.606 32.4583 43.542 31.3943 43.542 30.0833C43.542 25.2795 47.4465 21.375 52.2503 21.375C57.0541 21.375 60.9586 25.2795 60.9586 30.0833C60.9586 31.3943 59.8946 32.4583 58.5836 32.4583Z" fill="#6D4C41"/>
<path d="M38.0005 63.4349C31.6577 63.4349 25.3148 61.0219 20.4888 56.1927C19.561 55.2649 19.561 53.7607 20.4888 52.8329C21.4167 51.9051 22.9208 51.9051 23.8487 52.8329C27.6297 56.6139 32.6552 58.6976 38.0037 58.6976C43.3522 58.6976 48.3745 56.6139 52.1587 52.8329C53.0865 51.9051 54.5907 51.9051 55.5185 52.8329C56.4463 53.7607 56.4463 55.2649 55.5185 56.1927C50.6862 61.0219 44.3433 63.4349 38.0005 63.4349Z" fill="#6D4C41"/>
</svg>
